<svg xmlns="http://www.w3.org/2000/svg" xmlns:xlink="http://www.w3.org/1999/xlink" width="169" height="152" version="1.1" viewBox="0 0 169 152"><title>Group</title><desc>Created with Sketch.</desc><g id="Page-1" fill="none" fill-rule="evenodd" stroke="none" stroke-width="1"><g id="2" transform="translate(-97.000000, -145.000000)"><g id="Group" transform="translate(97.000000, 145.000000)"><g id="Group-14"><g id="Group-11" stroke="#34CEB9" stroke-linecap="square" stroke-width="5" opacity=".2" transform="translate(10.412322, 9.600000)"><path id="Line" d="M80.4952607,8.4 L74.0876777,70"/><path id="Line-Copy-7" d="M123.746445,12.4 L76.4905213,66"/><path id="Line-Copy-10" d="M123.746445,12.4 L145.372038,50"/><path id="Line-Copy-31" d="M14.0165877,47.6 L30.035545,79.6"/><path id="Line-Copy-32" d="M31.6374408,79.6 L37.2440758,114"/><path id="Line-Copy-15" d="M81.2962085,8.4 L124.547393,12.4"/><path id="Line-Copy-26" d="M40.4478673,0.4 L78.8933649,7.6"/><path id="Line-Copy-21" d="M14.8175355,46 L50.0592417,31.6"/><path id="Line-Copy-27" d="M50.8601896,30.8 L82.8981043,8.4"/><path id="Line-Copy-22" d="M12.4146919,43.6 L39.6469194,1.2"/><path id="Line-Copy-24" d="M38.8459716,117.2 L1.2014218,89.2"/><path id="Line-Copy-23" d="M2.00236967,88.4 L11.6137441,46.8"/><path id="Line-Copy-16" d="M49.2582938,31.6 L74.0876777,68.4"/><path id="Line-Copy-28" d="M39.6469194,0.4 L49.2582938,30.8"/><path id="Line-Copy-12" d="M114.936019,47.6 L144.57109,51.6"/><path id="Line-Copy-17" d="M73.2867299,134.8 L118.13981,119.6"/><path id="Line-Copy-25" d="M39.6469194,115.6 L73.2867299,134.8"/><path id="Line-Copy-20" d="M74.8886256,68.4 L0.400473934,88.4"/><path id="Line-Copy-30" d="M70.8838863,67.6 L11.6137441,45.2"/><path id="Line-Copy-19" d="M74.0876777,69.2 L122.14455,110.8"/><path id="Line-Copy-19" d="M91.3311311,109.776172 L121.308795,111.739453"/><polyline id="Line-Copy-19" points="73.591 134.145 89.706 110.805 77.067 79.104"/><path id="Line-Copy-18" d="M123.746445,108.4 L139.890551,82.4980469"/><path id="Line-Copy-14" d="M123.746445,14 L114.135071,44.4"/><path id="Line-Copy-13" d="M74.0876777,67.6 L113.334123,48.4"/><path id="Line-Copy-8" d="M114.135071,48.4 L121.343602,110.8"/><path id="Line-Copy-9" d="M114.135071,46.8 L138.163507,82.8"/><path id="Line-Copy-29" d="M74.0876777,73.2 L73.2867299,134"/><path id="Line-Copy-11" d="M146.172986,51.6 L139.765403,82"/><path id="Line-Copy-6" d="M72.485782,70 L36.443128,115.6"/></g><ellipse id="Oval-166-Copy-10" cx="46.455" cy="126.4" fill="#34CEB9" rx="17.621" ry="17.6"/><g id="Group-11" fill="#34CECE" transform="translate(56.066351, 51.200000)"><ellipse id="Oval-175-Copy" cx="27.232" cy="27.2" rx="27.232" ry="27.2"/></g><g id="Group-12" transform="translate(0.000000, 33.600000)"><ellipse id="Oval-166-Copy-11" cx="21.626" cy="21.6" fill="#34BCCE" rx="21.626" ry="21.6"/><g id="Group-Copy-10" fill="#FFF" transform="translate(12.815166, 11.400000)"><path id="Fill-1" d="M8.81042654,7.79130435 C6.65128406,7.79130435 4.89468141,6.04395307 4.89468141,3.89588984 C4.89468141,1.74782662 6.65128406,0 8.81042654,0 C10.969569,0 12.7261717,1.74782662 12.7261717,3.89588984 C12.7261717,6.04395307 10.969569,7.79130435 8.81042654,7.79130435"/><path id="Fill-4" d="M8.81029545,22.4 C6.67634923,22.4 4.66903971,22.1284924 3.15831381,21.6360933 C0.547972428,20.7849496 0,19.4887573 0,18.5513096 C0,14.2291137 3.95221836,10.7130435 8.81029545,10.7130435 C13.6683725,10.7130435 17.6208531,14.2291137 17.6208531,18.5513096 C17.6208531,20.3266055 15.3133386,22.4 8.81029545,22.4"/></g></g><ellipse id="Oval-166-Copy-12" cx="90.507" cy="17.6" fill="#34CECE" rx="17.621" ry="17.6"/><path id="Fill-1-Copy-17" fill="#FFF" d="M93.862547,23.5686747 L86.8464856,23.5686747 C84.1740932,23.5686747 82,21.3885222 82,18.708652 C82,16.0289806 84.1740932,13.8486293 86.8464856,13.8486293 C87.4188325,13.8486293 87.9839121,13.9521905 88.5173693,14.1517595 C89.5966575,12.2339886 91.6401362,11 93.862547,11 C97.2510604,11 100.007518,13.769716 100.007518,17.1739184 C100.007518,20.6403371 97.1935115,23.5686747 93.862547,23.5686747"/><ellipse id="Oval-166-Copy-13" cx="132.156" cy="120" fill="#34CEB9" rx="13.616" ry="13.6"/><path id="Fill-1-Copy-19" fill="#FFF" d="M134.972811,125.821687 L129.043594,125.821687 C126.785176,125.821687 124.947867,123.979257 124.947867,121.71452 C124.947867,119.449951 126.785176,117.607354 129.043594,117.607354 C129.527279,117.607354 130.004824,117.694873 130.455644,117.863527 C131.367742,116.242834 133.09467,115.2 134.972811,115.2 C137.836417,115.2 140.165877,117.540665 140.165877,120.417529 C140.165877,123.346972 137.787783,125.821687 134.972811,125.821687"/><ellipse id="Oval-27-Copy-28" cx="134.073" cy="21.788" fill="#34CEB9" rx="7.523" ry="7.388"/><ellipse id="Oval-27-Copy-34" cx="150.092" cy="92.188" fill="#34CEB9" rx="7.523" ry="7.388"/><ellipse id="Oval-27-Copy-35" cx="12.329" cy="98.588" fill="#34CEB9" rx="7.523" ry="7.388"/><ellipse id="Oval-27-Copy-32" cx="60.386" cy="40.988" fill="#34CECE" rx="7.523" ry="7.388"/><ellipse id="Oval-27-Copy-36" cx="49.974" cy="10.588" fill="#34CECE" rx="7.523" ry="7.388"/><ellipse id="Oval-27-Copy-31" cx="124.462" cy="56.988" fill="#34BCCE" rx="7.523" ry="7.388"/><ellipse id="Oval-27-Copy-37" cx="41.964" cy="88.988" fill="#34BCCE" rx="7.523" ry="7.388"/><ellipse id="Oval-27-Copy-33" cx="83.613" cy="144.188" fill="#34BCCE" rx="7.523" ry="7.388"/><ellipse id="Oval-27-Copy-38" cx="100.433" cy="120.188" fill="#34CEB9" rx="7.523" ry="7.388"/><g id="Group-Copy-11" fill="#FFF" transform="translate(39.246445, 118.600000)"><path id="Fill-1" d="M7.20853081,6.4 C5.44195968,6.4 4.00473934,4.96467574 4.00473934,3.20019523 C4.00473934,1.43571472 5.44195968,0 7.20853081,0 C8.97510193,0 10.4123223,1.43571472 10.4123223,3.20019523 C10.4123223,4.96467574 8.97510193,6.4 7.20853081,6.4"/><path id="Fill-4" d="M7.20842355,18.4 C5.46246755,18.4 3.8201234,18.1769759 2.58407494,17.7725052 C0.448341077,17.0733514 7.99360578e-15,16.0086221 7.99360578e-15,15.2385758 C7.99360578e-15,11.6882005 3.2336332,8.8 7.20842355,8.8 C11.1832139,8.8 14.4170616,11.6882005 14.4170616,15.2385758 C14.4170616,16.6968545 12.5290952,18.4 7.20842355,18.4"/></g><g id="Group-13" transform="translate(142.568720, 48.000000)"><ellipse id="Oval-166-Copy-14" cx="13.216" cy="13.2" fill="#34CECE" rx="13.216" ry="13.2"/><g id="Group-Copy-12" fill="#FFF" transform="translate(8.009479, 7.400000)"><path id="Fill-1" d="M5.60663507,4.73043478 C4.23263531,4.73043478 3.11479726,3.66954294 3.11479726,2.36536169 C3.11479726,1.06118045 4.23263531,0 5.60663507,0 C6.98063483,0 8.09847288,1.06118045 8.09847288,2.36536169 C8.09847288,3.66954294 6.98063483,4.73043478 5.60663507,4.73043478"/><path id="Fill-4" d="M5.60655165,13.6 C4.24858587,13.6 2.97120709,13.4351561 2.00983606,13.1361995 C0.348709727,12.6194337 -7.99360578e-15,11.8324598 -7.99360578e-15,11.2632951 C-7.99360578e-15,8.63910475 2.51504805,6.50434783 5.60655165,6.50434783 C8.69805525,6.50434783 11.2132701,8.63910475 11.2132701,11.2632951 C11.2132701,12.3411534 9.74485181,13.6 5.60655165,13.6"/></g></g></g><g id="Group-4" fill="#FFF" transform="translate(74.000000, 70.000000)"><ellipse id="Oval-174" cx="9" cy="2" rx="2" ry="2"/><ellipse id="Oval-174-Copy" cx="9" cy="16" rx="2" ry="2"/><ellipse id="Oval-174-Copy-2" cx="2" cy="9" rx="2" ry="2"/><ellipse id="Oval-174-Copy-3" cx="16" cy="9" rx="2" ry="2"/><rect id="Rectangle-142" width="14" height="4" x="2" y="7"/><rect id="Rectangle-142" width="13.992" height="4" x="1.979" y="7.004" transform="translate(8.974414, 9.004102) rotate(-270.000000) translate(-8.974414, -9.004102)"/></g></g></g></g></svg>