<svg xmlns="http://www.w3.org/2000/svg" xmlns:xlink="http://www.w3.org/1999/xlink" width="175" height="175" version="1.1" viewBox="0 0 175 175"><title>Group</title><desc>Created with Sketch.</desc><defs><linearGradient id="linearGradient-1" x1="78.337%" x2="97.651%" y1="21.671%" y2="0%"><stop offset="0%" stop-color="#1DE9B6"/><stop offset="100%" stop-color="#FFF" stop-opacity=".5"/></linearGradient></defs><g id="Page-1" fill="none" fill-rule="evenodd" stroke="none" stroke-width="1"><g id="3" transform="translate(-93.000000, -261.000000)"><g id="Group" transform="translate(93.000000, 261.000000)"><path id="Fill-1" fill="#1DE9B6" d="M175,87.5 C175,135.82561 135.82561,175 87.5,175 C39.1743902,175 0,135.82561 0,87.5 C0,39.1743902 39.1743902,0 87.5,0 C135.82561,0 175,39.1743902 175,87.5"/><path id="Fill-5" fill="url(#linearGradient-1)" d="M134,89.0066035 C134,88.9675407 129.81523,89.1145403 129.81523,89.1145403 C129.818366,112.223287 110.608984,131.000172 86.9984319,131.000172 C63.3878799,131.000172 44.1795434,112.278797 44.1795434,89.0621138 C44.1795434,89.023051 40,89.1145403 40,89.1145403 C39.9979092,114.490987 61.0817087,135 86.9984319,135 C112.915155,135 134,114.490987 134,89.0066035 Z"/><path id="Fill-5-Copy" fill="url(#linearGradient-1)" d="M134,43.0066035 C134,42.9675407 129.81523,43.1145403 129.81523,43.1145403 C129.818366,66.2232872 110.608984,85.000172 86.9984319,85.000172 C63.3878799,85.000172 44.1795434,66.2787975 44.1795434,43.0621138 C44.1795434,43.023051 40,43.1145403 40,43.1145403 C39.9979092,68.4909871 61.0817087,89 86.9984319,89 C112.915155,89 134,68.4909871 134,43.0066035 Z" transform="translate(87.000000, 66.000000) rotate(-180.000000) translate(-87.000000, -66.000000)"/><circle id="Oval-6" cx="42" cy="89" r="2" fill="#FFF"/><ellipse id="Oval-6-Copy" cx="132" cy="89" fill="#FFF" rx="2" ry="2"/></g></g></g></svg>