<svg xmlns="http://www.w3.org/2000/svg" xmlns:xlink="http://www.w3.org/1999/xlink" width="116" height="86" version="1.1" viewBox="0 0 116 86"><title>Group 6</title><desc>Created with Sketch.</desc><g id="Page-1" fill="none" fill-rule="evenodd" stroke="none" stroke-width="1"><g id="012-invite-copy-12" transform="translate(-123.000000, -199.000000)"><g id="Group-6" transform="translate(123.000000, 199.000000)"><ellipse id="Oval-85" cx="55.647" cy="38" fill="#34CEB9" fill-opacity=".5" rx="37.882" ry="38"/><path id="Shape" fill="#12A391" d="M91,59.7478146 C97.90625,59.7478146 103.5,54.032783 103.5,46.9767943 C103.5,39.9208057 97.90625,34.2057741 91,34.2057741 C84.09375,34.2057741 78.5,39.9208057 78.5,46.9767943 C78.5,54.032783 84.09375,59.7478146 91,59.7478146 L91,59.7478146 Z M91,66.1333247 C82.65625,66.1333247 66,70.4116165 66,78.904345 L66,85.2898551 L116,85.2898551 L116,78.904345 C116,70.4116165 99.34375,66.1333247 91,66.1333247 L91,66.1333247 Z" opacity=".3"/><g id="Group" fill="#FFF" transform="translate(45.000000, 27.000000)"><ellipse id="Oval-10" cx="7.353" cy="10.174" rx="2.471" ry="2.478"/><ellipse id="Oval-10" cx="10.647" cy="2.739" rx="2.471" ry="2.478"/><ellipse id="Oval-10" cx="10.647" cy="17.609" rx="2.471" ry="2.478"/><ellipse id="Oval-10" cx="18.059" cy="10.174" rx="2.471" ry="2.478"/><ellipse id="Oval-10" cx="3.235" cy="10.174" rx="2.471" ry="2.478"/><rect id="Rectangle-62-Copy-2" width="4.941" height="14.87" x="8.176" y="2.739" transform="translate(10.647059, 10.173913) rotate(-270.000000) translate(-10.647059, -10.173913)"/><rect id="Rectangle-62-Copy" width="4.941" height="14.87" x="8.176" y="2.739"/></g><path id="Shape" fill="#34AFCE" d="M45.95625,61.5613923 C44.34125,53.3421959 37.145,47.1718427 28.5,47.1718427 C21.63625,47.1718427 15.675,51.0789389 12.70625,56.7966408 C5.5575,57.559001 0,63.6340593 0,70.9956004 C0,78.8812642 6.38875,85.2898551 14.25,85.2898551 L45.125,85.2898551 C51.68,85.2898551 57,79.9533333 57,73.3779762 C57,67.0885041 52.13125,61.99022 45.95625,61.5613923 L45.95625,61.5613923 Z" opacity=".3"/></g></g></g></svg>